{
  "accessors": [
    {
      "bufferView": 2,
      "componentType": 5126,
      "count": 1435,
      "max": [
        0.7967659831047058,
        0.38099101185798645,
        1.0
      ],
      "min": [
        -0.16786199808120728,
        -0.38099101185798645,
        -0.9790840148925781
      ],
      "type": "VEC3"
    },
    {
      "bufferView": 2,
      "byteOffset": 17220,
      "componentType": 5126,
      "count": 1435,
      "max": [
        1.0,
        1.0,
        1.0
      ],
      "min": [
        -1.0,
        -1.0,
        -1.0
      ],
      "type": "VEC3"
    },
    {
      "bufferView": 3,
      "componentType": 5126,
      "count": 1435,
      "max": [
        1.0,
        1.0,
        1.0,
        1.0
      ],
      "min": [
        -1.0,
        -1.0,
        -1.0,
        -1.0
      ],
      "type": "VEC4"
    },
    {
      "bufferView": 1,
      "componentType": 5126,
      "count": 1435,
      "max": [
        0.8798620104789734,
        0.9900000095367432
      ],
      "min": [
        0.009999999776482582,
        0.05815200135111809
      ],
      "type": "VEC2"
    },
    {
      "bufferView": 0,
      "componentType": 5125,
      "count": 4176,
      "type": "SCALAR"
    },
    {
      "bufferView": 2,
      "byteOffset": 34440,
      "componentType": 5126,
      "count": 291,
      "max": [
        0.8036929965019226,
        0.37606900930404663,
        0.9152539968490601
      ],
      "min": [
        0.6861960291862488,
        -0.37699198722839355,
        -0.8699569702148438
      ],
      "type": "VEC3"
    },
    {
      "bufferView": 2,
      "byteOffset": 37932,
      "componentType": 5126,
      "count": 291,
      "max": [
        1.0,
        0.8874066472053528,
        0.9191605448722839
      ],
      "min": [
        -0.9999916553497314,
        -1.0,
        -0.764833390712738
      ],
      "type": "VEC3"
    },
    {
      "bufferView": 3,
      "byteOffset": 22960,
      "componentType": 5126,
      "count": 291,
      "max": [
        1.0,
        0.9999889135360718,
        0.9950277805328369,
        1.0
      ],
      "min": [
        -0.9382806420326233,
        -1.0,
        -0.9973353147506714,
        -1.0
      ],
      "type": "VEC4"
    },
    {
      "bufferView": 1,
      "byteOffset": 11480,
      "componentType": 5126,
      "count": 291,
      "max": [
        0.6196330189704895,
        0.9900000095367432
      ],
      "min": [
        0.009999999776482582,
        0.11554499715566635
      ],
      "type": "VEC2"
    },
    {
      "bufferView": 0,
      "byteOffset": 16704,
      "componentType": 5125,
      "count": 1422,
      "type": "SCALAR"
    },
    {
      "bufferView": 2,
      "byteOffset": 41424,
      "componentType": 5126,
      "count": 192,
      "max": [
        0.7669939994812012,
        0.3807719945907593,
        0.9216769933700562
      ],
      "min": [
        0.6535940170288086,
        -0.38099101185798645,
        -0.879584014415741
      ],
      "type": "VEC3"
    },
    {
      "bufferView": 2,
      "byteOffset": 43728,
      "componentType": 5126,
      "count": 192,
      "max": [
        1.0,
        0.9950507879257202,
        0.9995092749595642
      ],
      "min": [
        -1.0,
        -0.9945246577262878,
        -1.0
      ],
      "type": "VEC3"
    },
    {
      "bufferView": 3,
      "byteOffset": 27616,
      "componentType": 5126,
      "count": 192,
      "max": [
        0.9999997019767761,
        0.9857105016708374,
        0.9984954595565796,
        1.0
      ],
      "min": [
        -0.03734586760401726,
        -0.9997240900993347,
        -0.9982213377952576,
        1.0
      ],
      "type": "VEC4"
    },
    {
      "bufferView": 1,
      "byteOffset": 13808,
      "componentType": 5126,
      "count": 192,
      "max": [
        0.7030799984931946,
        0.9899790287017822
      ],
      "min": [
        0.6149799823760986,
        0.2102610021829605
      ],
      "type": "VEC2"
    },
    {
      "bufferView": 0,
      "byteOffset": 22392,
      "componentType": 5125,
      "count": 540,
      "type": "SCALAR"
    },
    {
      "bufferView": 2,
      "byteOffset": 46032,
      "componentType": 5126,
      "count": 156,
      "max": [
        -0.1438090056180954,
        0.04680740088224411,
        0.9973350167274475
      ],
      "min": [
        -0.8036929965019226,
        -0.1810310035943985,
        -1.0
      ],
      "type": "VEC3"
    },
    {
      "bufferView": 2,
      "byteOffset": 47904,
      "componentType": 5126,
      "count": 156,
      "max": [
        1.0,
        0.7117937207221985,
        1.0
      ],
      "min": [
        -0.8956976532936096,
        -0.7459880113601685,
        -1.0
      ],
      "type": "VEC3"
    },
    {
      "bufferView": 3,
      "byteOffset": 30688,
      "componentType": 5126,
      "count": 156,
      "max": [
        0.9973003268241882,
        0.7123165726661682,
        0.9450424909591675,
        1.0
      ],
      "min": [
        -0.836664080619812,
        -0.9822235107421875,
        -1.0,
        1.0
      ],
      "type": "VEC4"
    },
    {
      "bufferView": 1,
      "byteOffset": 15344,
      "componentType": 5126,
      "count": 156,
      "max": [
        0.9900000095367432,
        0.9469969868659973
      ],
      "min": [
        0.03111400082707405,
        0.10062699764966965
      ],
      "type": "VEC2"
    },
    {
      "bufferView": 0,
      "byteOffset": 24552,
      "componentType": 5125,
      "count": 516,
      "type": "SCALAR"
    },
    {
      "bufferView": 2,
      "byteOffset": 49776,
      "componentType": 5126,
      "count": 110,
      "max": [
        0.7050459980964661,
        0.032336100935935974,
        0.1605360060930252
      ],
      "min": [
        0.5969169735908508,
        -0.14805899560451508,
        -0.1178319975733757
      ],
      "type": "VEC3"
    },
    {
      "bufferView": 2,
      "byteOffset": 51096,
      "componentType": 5126,
      "count": 110,
      "max": [
        0.9863871932029724,
        0.8525189161300659,
        0.9339175820350647
      ],
      "min": [
        -0.9640034437179565,
        -0.9798018336296082,
        -0.9253147840499878
      ],
      "type": "VEC3"
    },
    {
      "bufferView": 3,
      "byteOffset": 33184,
      "componentType": 5126,
      "count": 110,
      "max": [
        0.9674251675605774,
        0.9439794421195984,
        0.9962738752365112,
        1.0
      ],
      "min": [
        -0.9723637104034424,
        -0.9614281058311462,
        -0.8208138346672058,
        1.0
      ],
      "type": "VEC4"
    },
    {
      "bufferView": 1,
      "byteOffset": 16592,
      "componentType": 5126,
      "count": 110,
      "max": [
        0.4375019967556,
        0.9900000095367432
      ],
      "min": [
        0.009999999776482582,
        0.42083999514579773
      ],
      "type": "VEC2"
    },
    {
      "bufferView": 0,
      "byteOffset": 26616,
      "componentType": 5125,
      "count": 330,
      "type": "SCALAR"
    }
  ],
  "asset": {
    "extras": {
      "author": "apetrova.hanna (https://sketchfab.com/apetrova.hanna)",
      "license": "CC-BY-4.0 (http://creativecommons.org/licenses/by/4.0/)",
      "source": "https://sketchfab.com/3d-models/sunglasses-7b87a4420fae44a0875dcb4fd0ad6aa0",
      "title": "Sunglasses"
    },
    "generator": "Sketchfab-12.65.0",
    "version": "2.0"
  },
  "bufferViews": [
    {
      "buffer": 0,
      "byteLength": 27936,
      "name": "floatBufferViews",
      "target": 34963
    },
    {
      "buffer": 0,
      "byteLength": 17472,
      "byteOffset": 27936,
      "byteStride": 8,
      "name": "floatBufferViews",
      "target": 34962
    },
    {
      "buffer": 0,
      "byteLength": 52416,
      "byteOffset": 45408,
      "byteStride": 12,
      "name": "floatBufferViews",
      "target": 34962
    },
    {
      "buffer": 0,
      "byteLength": 34944,
      "byteOffset": 97824,
      "byteStride": 16,
      "name": "floatBufferViews",
      "target": 34962
    }
  ],
  "buffers": [
    {
      "byteLength": 132768,
      "uri": "scene.bin"
    }
  ],
  "images": [
    {
      "uri": "textures/zoloto_baseColor.jpeg"
    },
    {
      "uri": "textures/zoloto_metallicRoughness.png"
    },
    {
      "uri": "textures/zoloto_emissive.jpeg"
    },
    {
      "uri": "textures/zoloto_normal.png"
    },
    {
      "uri": "textures/stekla_baseColor.png"
    },
    {
      "uri": "textures/stekla_metallicRoughness.png"
    },
    {
      "uri": "textures/stekla_emissive.jpeg"
    },
    {
      "uri": "textures/stekla_normal.png"
    },
    {
      "uri": "textures/kozha_baseColor.jpeg"
    },
    {
      "uri": "textures/kozha_metallicRoughness.png"
    },
    {
      "uri": "textures/kozha_emissive.jpeg"
    },
    {
      "uri": "textures/kozha_normal.png"
    },
    {
      "uri": "textures/Plastik_baseColor.jpeg"
    },
    {
      "uri": "textures/Plastik_metallicRoughness.png"
    },
    {
      "uri": "textures/Plastik_emissive.jpeg"
    },
    {
      "uri": "textures/Plastik_normal.png"
    },
    {
      "uri": "textures/rezina_metallicRoughness.png"
    },
    {
      "uri": "textures/rezina_emissive.jpeg"
    },
    {
      "uri": "textures/rezina_normal.png"
    }
  ],
  "materials": [
    {
      "doubleSided": true,
      "emissiveFactor": [
        1.0,
        1.0,
        1.0
      ],
      "emissiveTexture": {
        "index": 2
      },
      "name": "zoloto",
      "normalTexture": {
        "index": 3
      },
      "occlusionTexture": {
        "index": 1
      },
      "pbrMetallicRoughness": {
        "baseColorTexture": {
          "index": 0
        },
        "metallicRoughnessTexture": {
          "index": 1
        }
      }
    },
    {
      "alphaMode": "BLEND",
      "doubleSided": true,
      "emissiveFactor": [
        1.0,
        1.0,
        1.0
      ],
      "emissiveTexture": {
        "index": 6
      },
      "name": "stekla",
      "normalTexture": {
        "index": 7
      },
      "occlusionTexture": {
        "index": 5
      },
      "pbrMetallicRoughness": {
        "baseColorTexture": {
          "index": 4
        },
        "metallicRoughnessTexture": {
          "index": 5
        }
      }
    },
    {
      "doubleSided": true,
      "emissiveFactor": [
        1.0,
        1.0,
        1.0
      ],
      "emissiveTexture": {
        "index": 10
      },
      "name": "kozha",
      "normalTexture": {
        "index": 11
      },
      "occlusionTexture": {
        "index": 9
      },
      "pbrMetallicRoughness": {
        "baseColorTexture": {
          "index": 8
        },
        "metallicRoughnessTexture": {
          "index": 9
        }
      }
    },
    {
      "doubleSided": true,
      "emissiveFactor": [
        1.0,
        1.0,
        1.0
      ],
      "emissiveTexture": {
        "index": 14
      },
      "name": "Plastik",
      "normalTexture": {
        "index": 15
      },
      "occlusionTexture": {
        "index": 13
      },
      "pbrMetallicRoughness": {
        "baseColorTexture": {
          "index": 12
        },
        "metallicRoughnessTexture": {
          "index": 13
        }
      }
    },
    {
      "alphaMode": "BLEND",
      "doubleSided": true,
      "emissiveFactor": [
        1.0,
        1.0,
        1.0
      ],
      "emissiveTexture": {
        "index": 17
      },
      "name": "rezina",
      "normalTexture": {
        "index": 18
      },
      "occlusionTexture": {
        "index": 16
      },
      "pbrMetallicRoughness": {
        "baseColorFactor": [
          0.7057744131090642,
          0.6987517404522775,
          0.6987517404522775,
          0.0809620647895627
        ],
        "metallicRoughnessTexture": {
          "index": 16
        }
      }
    }
  ],
  "meshes": [
    {
      "name": "defaultMaterial",
      "primitives": [
        {
          "attributes": {
            "NORMAL": 1,
            "POSITION": 0,
            "TANGENT": 2,
            "TEXCOORD_0": 3
          },
          "indices": 4,
          "material": 0,
          "mode": 4
        }
      ]
    },
    {
      "name": "defaultMaterial",
      "primitives": [
        {
          "attributes": {
            "NORMAL": 6,
            "POSITION": 5,
            "TANGENT": 7,
            "TEXCOORD_0": 8
          },
          "indices": 9,
          "material": 1,
          "mode": 4
        }
      ]
    },
    {
      "name": "defaultMaterial",
      "primitives": [
        {
          "attributes": {
            "NORMAL": 11,
            "POSITION": 10,
            "TANGENT": 12,
            "TEXCOORD_0": 13
          },
          "indices": 14,
          "material": 2,
          "mode": 4
        }
      ]
    },
    {
      "name": "defaultMaterial",
      "primitives": [
        {
          "attributes": {
            "NORMAL": 16,
            "POSITION": 15,
            "TANGENT": 17,
            "TEXCOORD_0": 18
          },
          "indices": 19,
          "material": 3,
          "mode": 4
        }
      ]
    },
    {
      "name": "defaultMaterial",
      "primitives": [
        {
          "attributes": {
            "NORMAL": 21,
            "POSITION": 20,
            "TANGENT": 22,
            "TEXCOORD_0": 23
          },
          "indices": 24,
          "material": 4,
          "mode": 4
        }
      ]
    }
  ],
  "nodes": [
    {
      "children": [
        1
      ],
      "matrix": [
        1.0,
        0.0,
        0.0,
        0.0,
        0.0,
        2.220446049250313e-16,
        -1.0,
        0.0,
        0.0,
        1.0,
        2.220446049250313e-16,
        0.0,
        0.0,
        0.0,
        0.0,
        1.0
      ],
      "name": "Sketchfab_model"
    },
    {
      "children": [
        2
      ],
      "matrix": [
        1.0,
        0.0,
        0.0,
        0.0,
        0.0,
        -4.371139006309477e-08,
        0.999999999999999,
        0.0,
        0.0,
        -0.999999999999999,
        -4.371139006309477e-08,
        0.0,
        0.0,
        0.0,
        0.0,
        1.0
      ],
      "name": "Collada visual scene group"
    },
    {
      "children": [
        3,
        4,
        5,
        6,
        7
      ],
      "name": "Cube.000"
    },
    {
      "mesh": 0,
      "name": "defaultMaterial"
    },
    {
      "mesh": 1,
      "name": "defaultMaterial"
    },
    {
      "mesh": 2,
      "name": "defaultMaterial"
    },
    {
      "mesh": 3,
      "name": "defaultMaterial"
    },
    {
      "mesh": 4,
      "name": "defaultMaterial"
    }
  ],
  "samplers": [
    {
      "magFilter": 9729,
      "minFilter": 9987,
      "wrapS": 10497,
      "wrapT": 10497
    }
  ],
  "scene": 0,
  "scenes": [
    {
      "name": "Sketchfab_Scene",
      "nodes": [
        0
      ]
    }
  ],
  "textures": [
    {
      "sampler": 0,
      "source": 0
    },
    {
      "sampler": 0,
      "source": 1
    },
    {
      "sampler": 0,
      "source": 2
    },
    {
      "sampler": 0,
      "source": 3
    },
    {
      "sampler": 0,
      "source": 4
    },
    {
      "sampler": 0,
      "source": 5
    },
    {
      "sampler": 0,
      "source": 6
    },
    {
      "sampler": 0,
      "source": 7
    },
    {
      "sampler": 0,
      "source": 8
    },
    {
      "sampler": 0,
      "source": 9
    },
    {
      "sampler": 0,
      "source": 10
    },
    {
      "sampler": 0,
      "source": 11
    },
    {
      "sampler": 0,
      "source": 12
    },
    {
      "sampler": 0,
      "source": 13
    },
    {
      "sampler": 0,
      "source": 14
    },
    {
      "sampler": 0,
      "source": 15
    },
    {
      "sampler": 0,
      "source": 16
    },
    {
      "sampler": 0,
      "source": 17
    },
    {
      "sampler": 0,
      "source": 18
    }
  ]
}
